<svg width="484" height="323" viewBox="0 0 484 323" fill="none" xmlns="http://www.w3.org/2000/svg">
<path d="M0 123V0H22H44V68.8L44.1 137.5L48.3 132.9C50.6 130.4 65.1 114.9 80.5 98.5C95.9 82.1 110.1 66.8 112.1 64.7L115.6 60.7L145.4 60.8C161.8 60.8 175.4 61.1 175.7 61.3C175.9 61.6 170.6 67.6 163.8 74.7C145.8 93.5 99.5 143 99.3 143.8C99 144.5 104.8 151 134.9 183.6C145.1 194.5 158.4 208.9 164.4 215.5C170.5 222.1 179.2 231.4 183.8 236.2C188.3 240.9 192 245.1 192 245.4C192 245.7 177.9 246 160.8 246L129.5 245.9L123.6 239.2C85.7 195.9 67.9 176 67.1 176C66.8 176 61.4 181.1 55.3 187.3L44 198.5L43.8 222L43.5 245.5L21.8 245.8L0 246V123Z" fill="#F16825"/>
<path d="M272.478 245.46C251.278 243.16 234.578 235.86 221.278 223.36C204.378 207.36 195.678 188.46 192.778 161.76C190.578 141.76 193.078 122.56 199.878 105.26C216.478 63.76 255.878 41.46 299.378 49.06C327.478 53.96 351.178 72.46 363.478 99.06C370.578 114.46 374.278 134.16 373.178 150.36L372.578 157.56H303.278H233.878V161.86C233.878 167.56 237.578 181.86 240.478 187.76C244.378 195.56 253.178 204.06 261.278 208.06C272.778 213.66 289.978 214.56 303.978 210.26C313.678 207.26 323.578 197.76 328.478 186.86L330.878 181.56H349.778C360.878 181.56 368.978 181.96 369.378 182.56C370.378 184.16 364.978 198.66 360.678 206.06C352.378 220.16 336.578 233.46 320.878 239.46C307.178 244.76 287.578 247.16 272.478 245.46ZM330.278 129.66C331.478 127.86 327.778 113.86 324.278 106.76C319.478 96.96 311.878 89.46 301.978 84.66C294.578 81.16 294.078 81.06 282.878 81.06C272.078 81.16 270.878 81.36 263.478 84.56C252.978 88.96 244.578 97.16 239.578 107.66C236.178 114.86 233.878 123.06 233.878 128.06V130.56H281.778C309.578 130.56 329.978 130.16 330.278 129.66Z" fill="#58595A"/>
<path d="M435.869 244.831C422.269 241.731 413.269 235.231 409.269 225.631C405.269 216.131 404.869 209.331 404.869 147.231V87.4311L389.169 87.1311L373.369 86.8311V71.8311V56.8311L389.169 56.5311L404.869 56.2311V28.3311V0.331055H425.869H446.869V28.3311V56.3311H465.369H483.869V71.8311V87.3311H465.369H446.769L447.069 145.131C447.369 201.031 447.469 202.931 449.369 206.331C452.869 212.331 456.469 213.431 471.169 213.131L483.869 212.831V228.431C483.869 243.831 483.869 244.131 481.669 244.731C480.369 245.131 471.069 245.631 460.869 245.831C446.769 246.231 440.769 245.931 435.869 244.831Z" fill="#58595A"/>
<path d="M130.917 321.844C130.808 321.554 130.772 314.092 130.844 305.253C130.989 291.234 131.061 288.879 131.641 286.995C132.692 283.373 134.068 280.982 136.749 278.265C139.719 275.259 143.052 273.411 147.29 272.469C157.325 270.26 168.156 276.925 170.836 286.995C171.525 289.459 171.452 294.748 170.764 297.464C169.605 302.029 166.236 306.665 162.179 309.165C159.136 311.085 157.469 311.701 153.919 312.208C149.283 312.824 145.262 311.991 140.118 309.346C139.973 309.274 139.792 312.135 139.755 315.685L139.647 322.134L135.372 322.242C132.003 322.315 131.098 322.242 130.917 321.844ZM156.672 302.246C161.671 299.565 163.917 293.516 161.925 288.155C160.875 285.365 159.063 283.409 156.202 282.033C154.137 281.018 153.376 280.837 151.239 280.873C146.747 280.873 143.016 283.192 140.842 287.249C139.719 289.35 139.647 295.001 140.697 296.957C144.03 303.224 150.732 305.434 156.672 302.246Z" fill="#F16825"/>
<path d="M54.6271 311.99C49.7005 311.012 45.752 307.969 43.4698 303.478C41.5137 299.565 41.2239 297.573 41.0428 285.293L40.8616 274.208L42.7815 273.954C43.8683 273.809 45.8969 273.773 47.2734 273.846L49.8092 273.954L49.9903 285.727C50.2076 298.153 50.2439 298.515 52.0189 300.869C53.3954 302.681 55.4602 303.55 58.8654 303.767C64.2267 304.093 67.5956 302.355 69.0446 298.515C69.6242 296.993 69.7328 295.327 69.8415 285.365L69.9502 273.954L73.6089 273.846C79.26 273.701 78.6804 272.252 78.5355 286.017L78.3906 297.863L77.4125 300.724C75.7824 305.361 72.8482 308.875 69.0808 310.686C65.4945 312.425 59.5174 312.968 54.6271 311.99Z" fill="#F16825"/>
<path d="M102.842 312.099C96.6479 311.519 91.5764 308.404 88.0626 303.006C85.8166 299.492 85.0197 296.739 84.9835 292.247C84.9835 287.538 85.8529 284.713 88.4248 280.837C90.5259 277.721 92.9529 275.657 96.5392 273.954C109.87 267.578 125.736 277.576 125.265 292.03L125.157 295.145L109.87 295.182C100.705 295.182 94.4744 295.327 94.3657 295.544C94.0034 296.087 95.5973 298.949 97.1912 300.579C99.6183 303.042 101.792 303.948 105.414 303.984C108.131 303.984 108.711 303.876 110.123 303.042C111.029 302.535 112.152 301.666 112.623 301.159C113.492 300.217 113.601 300.217 118.528 300.217C122.295 300.217 123.527 300.326 123.527 300.688C123.527 301.34 121.281 304.528 119.506 306.339C117.586 308.295 114.217 310.505 111.971 311.266C109.508 312.062 105.994 312.388 102.842 312.099ZM115.738 287.937C116.137 287.864 114.724 285.582 113.348 284.097C108.457 278.772 99.6907 279.533 95.6698 285.582C95.054 286.524 94.5468 287.43 94.5468 287.611C94.5468 287.901 114.507 288.227 115.738 287.937Z" fill="#F16825"/>
<path d="M193.151 312.136C186.015 311.085 180.074 306.34 177.248 299.385C176.56 297.718 176.306 296.233 176.161 293.516C175.908 289.097 176.415 286.597 178.118 283.156C183.008 273.375 195.795 268.956 204.054 274.208C204.996 274.824 206.409 276.02 207.206 276.925L208.619 278.555L208.727 275.875L208.836 273.23H213.183H217.53L217.639 292.176L217.711 311.085H213.183H208.655V308.477V305.833L207.387 307.318C204.163 311.158 198.838 312.969 193.151 312.136ZM201.338 302.355C203.656 301.196 205.612 299.276 206.735 296.994C207.242 296.016 207.387 294.856 207.387 292.067C207.387 288.771 207.278 288.3 206.409 286.778C205.177 284.677 202.932 282.649 200.758 281.634C199.49 281.055 198.331 280.874 196.157 280.874C193.586 280.837 193.006 280.982 191.05 281.997C186.884 284.17 184.928 287.358 184.928 292.067C184.928 295.472 185.688 297.428 187.862 299.855C189.999 302.21 192.97 303.478 196.375 303.478C198.729 303.478 199.454 303.297 201.338 302.355Z" fill="#F16825"/>
<path d="M0.0724497 286.56L0.181124 262H4.5281H8.87509L9.05621 275.512L9.23733 288.988L15.2144 282.612C18.5109 279.062 21.6987 275.657 22.3145 274.968L23.4375 273.773H29.3059C33.0371 273.773 35.1381 273.918 35.1381 274.135C35.1381 274.353 32.5661 277.214 29.4508 280.547C18.8731 291.704 19.8874 290.509 20.5757 291.306C20.9017 291.704 25.0676 296.232 29.813 301.34C34.5223 306.484 38.3983 310.759 38.3983 310.867C38.3983 310.976 35.5728 311.085 32.1677 311.048L25.9008 311.012L21.916 306.448C19.7425 303.948 16.9532 300.797 15.7578 299.456L13.5843 296.993L11.3384 299.203L9.09243 301.449L8.98376 306.158L8.87509 310.904L4.41943 311.012L0 311.121L0.0724497 286.56Z" fill="#F16825"/>
<path d="M281.322 315.613C277.265 314.164 274.331 311.483 272.411 307.426C270.853 304.166 270.237 301.159 270.237 296.414C270.237 286.742 273.28 280.801 279.837 277.685C282.228 276.562 283.061 276.345 285.959 276.2C292.479 275.874 297.587 278.337 300.485 283.155L301.753 285.329V273.664V262H303.202H304.651V288.806V315.613H303.202H301.789L301.68 311.556L301.572 307.462L300.376 309.346C298.746 311.882 296.681 313.657 293.856 314.997C291.719 316.011 291.03 316.12 287.444 316.229C284.111 316.337 283.097 316.229 281.322 315.613ZM293.24 312.642C296.863 310.722 299.942 306.484 301.028 301.884C301.282 300.797 301.499 298.116 301.463 295.906C301.427 288.046 298.529 282.539 293.059 279.823C291.284 278.953 290.668 278.845 287.263 278.845C283.894 278.845 283.206 278.953 281.395 279.823C279.076 280.909 276.359 283.481 275.273 285.619C272.483 291.089 272.411 300.833 275.164 306.231C276.866 309.599 280.38 312.715 283.387 313.475C284.039 313.62 286.104 313.729 287.987 313.657C290.885 313.584 291.719 313.439 293.24 312.642Z" fill="#58595A"/>
<path d="M321.495 316.084C317.583 315.215 314.432 312.57 312.946 308.875C312.077 306.774 312.077 306.593 311.968 291.813L311.86 276.853H313.309H314.794V290.618C314.794 299.131 314.939 305.035 315.192 306.195C315.699 308.622 317.547 311.194 319.684 312.534C321.387 313.585 321.604 313.621 325.625 313.621C329.392 313.621 330.008 313.512 331.602 312.715C334.681 311.157 337.181 308.223 338.738 304.347C339.101 303.442 339.282 299.819 339.427 290.075L339.608 277.034H341.057H342.506V296.233V315.432H341.057H339.608L339.644 311.447C339.68 308.368 339.608 307.607 339.282 308.151C336.927 312.136 333.92 314.707 330.298 315.794C328.559 316.301 323.27 316.483 321.495 316.084Z" fill="#58595A"/>
<path d="M389.707 315.939C387.243 315.359 384.201 313.548 382.317 311.556C378.694 307.716 377.318 303.695 377.318 296.776C377.318 287.285 380.469 281.163 387.062 277.903C389.743 276.563 390.431 276.381 393.329 276.2C397.06 276.019 399.487 276.454 402.458 277.939C405.066 279.243 408 282.395 409.377 285.365C410.572 287.865 411.623 293.009 411.442 295.255L411.333 296.595L395.684 296.704L379.999 296.776V297.971C379.999 299.891 381.013 303.949 381.955 306.05C383.078 308.513 385.613 311.193 388.04 312.57C389.852 313.584 390.178 313.621 394.307 313.621C399.343 313.621 400.9 313.113 403.69 310.541C405.356 309.02 407.892 304.601 407.892 303.26C407.892 302.681 408.181 302.572 409.377 302.572H410.898L410.681 303.912C410.536 304.637 409.92 306.376 409.232 307.788C407.276 311.882 403.907 314.671 399.56 315.794C397.278 316.374 391.88 316.482 389.707 315.939ZM408.254 292.864C408.254 287.72 404.921 282.177 400.393 279.895C398.473 278.917 398.002 278.845 394.488 278.845C390.938 278.881 390.54 278.953 388.511 280.004C383.911 282.359 380.361 287.973 380.361 292.864V294.24H394.307H408.254V292.864Z" fill="#58595A"/>
<path d="M427.815 316.084C427.344 315.975 426.113 315.576 425.099 315.178C418.795 312.715 414.919 306.194 414.521 297.319C414.086 287.973 417.491 281.308 424.41 277.866C427.2 276.49 427.707 276.381 430.967 276.2C439.951 275.765 446.761 280.221 447.92 287.285L448.174 288.806H446.761H445.312L444.696 286.597C443.899 283.735 441.726 281.344 438.574 279.895C436.546 278.953 435.966 278.844 432.343 278.844C428.685 278.844 428.178 278.917 426.185 279.895C419.303 283.264 415.825 292.393 417.89 301.594C419.049 306.81 421.657 310.469 425.678 312.57C427.489 313.548 427.924 313.62 431.8 313.62C436.727 313.62 438.284 313.077 441.255 310.288C443.247 308.44 444.551 306.194 445.24 303.514C445.638 301.883 445.674 301.847 447.051 301.847C448.753 301.847 448.79 302.137 447.703 305.434C445.892 310.722 442.016 314.417 436.69 315.83C434.988 316.301 429.772 316.446 427.815 316.084Z" fill="#58595A"/>
<path d="M232.201 288.806V262H250.35H268.462L268.354 263.377L268.245 264.717L251.871 264.826L235.461 264.898V275.584V286.271H250.857H266.253V287.72V289.169H250.857H235.461V300.942V312.715H252.161H268.824L268.716 314.091L268.607 315.432L250.422 315.54L232.201 315.613V288.806Z" fill="#58595A"/>
<path d="M362.611 290.255V264.898H353.192H343.774V263.449V262L364.313 262.072L384.853 262.181V263.449V264.717L375.362 264.826L365.871 264.898V290.255V315.613H364.241H362.611V290.255Z" fill="#58595A"/>
<path d="M453.426 315.359C453.281 315.251 453.173 303.188 453.173 288.553V262H454.622H456.071L456.143 273.519L456.252 285.003L457.411 282.974C458.751 280.583 460.889 278.736 463.895 277.323C465.851 276.381 466.395 276.309 470.198 276.309C473.712 276.309 474.69 276.454 476.538 277.178C479.327 278.265 481.682 280.656 482.877 283.554C483.746 285.727 483.746 285.8 483.891 300.688L484 315.613H482.551H481.066V302.463C481.066 286.053 480.776 284.17 477.733 281.344C475.813 279.497 474.292 278.917 471.068 278.736C464.366 278.374 459.476 281.706 457.121 288.191C456.361 290.328 456.288 291.125 456.143 303.043L455.998 315.613H454.839C454.187 315.613 453.535 315.504 453.426 315.359Z" fill="#58595A"/>
</svg>
